{"title":"The.Smurfs.2.2013.CAM.READ.NFO.XViD-VAiN","uid":8779503,"size":1486524619,"categoryP":"video","categoryS":"movies","magnet":"?xt=urn:btih:5fa6f9dc2ff21e628c286d5c887523fca4c33116&amp;dn=The.Smurfs.2.2013.CAM.READ.NFO.XViD-VAiN&amp;tr=udp%3A%2F%2Ftracker.openbittorrent.com%3A80&amp;tr=udp%3A%2F%2Fopen.demonii.com%3A1337&amp;tr=udp%3A%2F%2Ftracker.coppersurfer.tk%3A6969&amp;tr=udp%3A%2F%2Fexodus.desync.com%3A6969","seeders":1,"leechers":0,"uploader":"xxxlavalxxx","files":-1,"time":1375643943,"description":" &lt;a href=&quot;\nhttp://www.imdb.com/title/tt2017020/&quot; rel=&quot;nofollow&quot; target=&quot;_NEW&quot;&gt;\nhttp://www.imdb.com/title/tt2017020/&lt;/a&gt;\n\n\n\nThe Smurfs team up with their human friends to rescue Smurfette, who has been kidnapped by Gargamel since she knows a secret spell that can turn the evil sorcerer's newest creation - creatures called the Naughties - into real Smurfs. \n\n\n\nDirector:\n Raja Gosnell \n\nWriters:\n J. David Stem (screenplay), David N. Weiss (screenplay)\n\nStars:\n Hank Azaria, Neil Patrick Harris, Jayma Mays \n\nGenres:\n  Animation |  Comedy |  Family |  Fantasy \n\nCountry:\n USA \n\nLanguage:\n English | French \n\n\n\nThe.Smurfs.2.2013.CAM.READ.NFO.XViD-VAiN\n\n iMDB........: http://www.imdb.com/title/tt2017020/\n\n PLOT........: The Smurfs team up with their human friends to rescue Smurfette, who has been kidnapped by Gargamel since she knows a secret spell that can turn the evil sorcerer's newest creation - creatures called the Naughties - into real Smurfs.   \n\n T E C H N i C A L . i N F O . . .      \n Format                           : AVI\n Format/Info                      : Audio Video Interleave\n File size                        : 1.37 GiB\n Duration                         : 1h 37mn\n Overall bit rate                 : 2 022 Kbps\n Movie name                       : Smurfiki.2.2013.D.TS.1400MB.INTERCINEMA\n Director                         : INTERCINEMA\n Writing application              : VirtualDubMod 1.5.10.2 (build 2540/release)\n Writing library                  : VirtualDubMod build 2540/release\n Copyright                        : http://intercinema.net\n\n Video\n ID                               : 0\n Format                           : MPEG-4 Visual\n Format profile                   : Advanced Simple@L5\n Format settings, BVOP            : 2\n Format settings, QPel            : No\n Format settings, GMC             : No warppoints\n Format settings, Matrix          : Default (MPEG)\n Muxing mode                      : Packed bitstream\n Codec ID                         : XVID\n Codec ID/Hint                    : XviD\n Duration                         : 1h 37mn\n Bit rate                         : 1 882 Kbps\n Width                            : 640 pixels\n Height                           : 304 pixels\n Display aspect ratio             : 2.2:1\n Frame rate                       : 29.970 fps\n Color space                      : YUV\n Chroma subsampling               : 4:2:0\n Bit depth                        : 8 bits\n Scan type                        : Progressive\n Compression mode                 : Lossy\n Bits/(Pixel*Frame)               : 0.323\n Stream size                      : 1.28 GiB (93%)\n Writing library                  : XviD 64\n\n Audio\n ID                               : 1\n Format                           : MPEG Audio\n Format version                   : Version 1\n Format profile                   : Layer 3\n Codec ID                         : 55\n Codec ID/Hint                    : MP3\n Duration                         : 1h 37mn\n Bit rate mode                    : Constant\n Bit rate                         : 128 Kbps\n Channel(s)                       : 2 channels\n Sampling rate                    : 44.1 KHz\n Compression mode                 : Lossy\n Stream size                      : 88.9 MiB (6%)\n Alignment                        : Split accross interleaves\n Interleave, duration             : 33 ms (1.00 video frame)\n\n\n\n\n\n\n\n E N C O D E R S . N O T E S . . .       \n\n\n SOURCE......:  ViDEO:Smurfiki.2.2013.D.TS.1400MB.INTERCINEMA [thanx]\n               AUDiO: The DOGZ BOLLAX :wink: thanks brochacho\n\n\n SAMPLE......: Yes! duh...\n\n ADDED NOTE..: well here we are again, this time, all this is a re-encode of the russian release which seems to be from a spanish source. as with most cams, taken from the side, has movement this release already has someones filters being used and ben worked over.\n\n work that needed done, rotated, croped, bit of the ol' perspective to straighten out and level off best we can. while not a lot of noise and some decent detail, there were parts that the saturation needed some attention. brought those down, tweaked rgb &amp; a splash of sharpness to bring back some of the detail due to the loss using a de-noiser. \n\n ** reason why mostly to read nfo - - throughout the movie there are some hot spots and a few places where the whites are off the hook.you notice the worst about 3/4 of the way through. &quot;you have been warned&quot; -  audio is from a special friend and we are greatful for the hook up. it's amazing sounding for what it is. . .\n\n a very special thanx to tommiecook &amp; 26k for the great job of the sync of audio. cheers m8's\n\n v/5 a/7 \n\n cheers to the cammer, the provider and everyone that assist in helping us bring QUALiTY - -to you all :wink:\n\n WORK.DONE . . .\n\n\nscreens\n\n\n    &lt;a href=&quot;\thttp://addpix.net/viewer.php?file=54107488480017117178.jpg&quot; rel=&quot;nofollow&quot; target=&quot;_NEW&quot;&gt;\thttp://addpix.net/viewer.php?file=54107488480017117178.jpg&lt;/a&gt;\n    &lt;a href=&quot;\thttp://addpix.net/viewer.php?file=10245831802666560193.jpg&quot; rel=&quot;nofollow&quot; target=&quot;_NEW&quot;&gt;\thttp://addpix.net/viewer.php?file=10245831802666560193.jpg&lt;/a&gt;\n    &lt;a href=&quot;\thttp://addpix.net/viewer.php?file=10050410345540757768.jpg&quot; rel=&quot;nofollow&quot; target=&quot;_NEW&quot;&gt;\thttp://addpix.net/viewer.php?file=10050410345540757768.jpg&lt;/a&gt;\n    &lt;a href=&quot;\thttp://addpix.net/viewer.php?file=19575095760335412640.jpg&quot; rel=&quot;nofollow&quot; target=&quot;_NEW&quot;&gt;\thttp://addpix.net/viewer.php?file=19575095760335412640.jpg&lt;/a&gt;\n    &lt;a href=&quot;\thttp://addpix.net/viewer.php?file=80263216846129055221.jpg&quot; rel=&quot;nofollow&quot; target=&quot;_NEW&quot;&gt;\thttp://addpix.net/viewer.php?file=80263216846129055221.jpg&lt;/a&gt;\n    &lt;a href=&quot;\thttp://addpix.net/viewer.php?file=46172654884536875391.jpg&quot; rel=&quot;nofollow&quot; target=&quot;_NEW&quot;&gt;\thttp://addpix.net/viewer.php?file=46172654884536875391.jpg&lt;/a&gt;","torrent":{"xt":"urn:btih:5fa6f9dc2ff21e628c286d5c887523fca4c33116","amp;dn":"The.Smurfs.2.2013.CAM.READ.NFO.XViD-VAiN","amp;tr":["udp%3A%2F%2Ftracker.openbittorrent.com%3A80","udp%3A%2F%2Fopen.demonii.com%3A1337","udp%3A%2F%2Ftracker.coppersurfer.tk%3A6969","udp%3A%2F%2Fexodus.desync.com%3A6969"],"infoHash":"5fa6f9dc2ff21e628c286d5c887523fca4c33116","infoHashBuffer":{"type":"Buffer","data":[95,166,249,220,47,242,30,98,140,40,109,92,136,117,35,252,164,195,49,22]},"announce":[],"urlList":[]}}